<?xml version="1.0" encoding="utf-8"?>
<!-- Generator: Adobe Illustrator 15.0.0, SVG Export Plug-In . SVG Version: 6.00 Build 0)  -->
<!DOCTYPE svg PUBLIC "-//W3C//DTD SVG 1.1//EN" "http://www.w3.org/Graphics/SVG/1.1/DTD/svg11.dtd">
<svg version="1.1"
	 id="svg5973" inkscape:version="0.92.0 r" sodipodi:docname="juliarun-small.svg" xmlns:sodipodi="http://sodipodi.sourceforge.net/DTD/sodipodi-0.dtd" xmlns:inkscape="http://www.inkscape.org/namespaces/inkscape" xmlns:svg="http://www.w3.org/2000/svg" xmlns:rdf="http://www.w3.org/1999/02/22-rdf-syntax-ns#" xmlns:cc="http://creativecommons.org/ns#" xmlns:dc="http://purl.org/dc/elements/1.1/"
	 xmlns="http://www.w3.org/2000/svg" xmlns:xlink="http://www.w3.org/1999/xlink" x="0px" y="0px" width="88.83px"
	 height="60.079px" viewBox="0 0 88.83 60.079" enable-background="new 0 0 88.83 60.079" xml:space="preserve">
<sodipodi:namedview  bordercolor="#666666" pagecolor="#ffffff" borderopacity="1" guidetolerance="10" objecttolerance="10" gridtolerance="10" inkscape:pageopacity="0" inkscape:pageshadow="2" inkscape:window-width="1004" inkscape:window-height="494" id="namedview16" showgrid="false" inkscape:zoom="2.9461122" inkscape:cx="70.163168" inkscape:cy="40.052786" inkscape:window-x="0" inkscape:window-y="49" inkscape:window-maximized="0" inkscape:current-layer="svg5973">
	</sodipodi:namedview>
<g>
	<g>
		<g>
			<path d="M15.478,1.519v1.854l-2.38,0.408v13.109c0,1.898-0.602,3.404-1.803,4.519c-1.202,1.114-2.763,1.672-4.679,1.672
				c-2.045,0-3.67-0.519-4.877-1.556s-1.785-2.541-1.736-4.518l0.028-0.088h2.759c0,1.314,0.334,2.295,1,2.941
				c0.667,0.647,1.609,0.971,2.826,0.971c1.059,0,1.927-0.357,2.597-1.072c0.673-0.715,1.008-1.672,1.008-2.869V3.781l-2.38-0.408
				V1.519h5.257H15.478z"/>
			<path d="M28.937,20.438c-0.496,0.847-1.136,1.5-1.919,1.957s-1.687,0.686-2.709,0.686c-1.712,0-3.051-0.549-4.014-1.648
				s-1.445-2.813-1.445-5.139V9.24l-1.81-0.408V6.979h1.81h2.876v9.342c0,1.684,0.249,2.843,0.744,3.475
				c0.496,0.633,1.271,0.949,2.321,0.949c1.021,0,1.866-0.207,2.533-0.62c0.667-0.414,1.17-1.001,1.511-1.759V9.24l-2.117-0.408
				V6.979h2.117h2.876v13.547l1.811,0.408v1.839h-4.395L28.937,20.438z"/>
			<path d="M35.405,1.854V0h5.256v20.525l2.379,0.408v1.84h-7.635v-1.84l2.38-0.408V2.264L35.405,1.854z"/>
			<path d="M45.216,20.934l2.379-0.408V9.24l-2.379-0.408V6.979h5.256v13.547l2.378,0.408v1.839h-7.634V20.934z M50.471,2.935
				h-2.877V0h2.877V2.935z"/>
			<path d="M65.346,22.773c-0.089-0.429-0.156-0.812-0.204-1.154c-0.049-0.34-0.083-0.681-0.102-1.021
				c-0.556,0.711-1.248,1.303-2.08,1.773c-0.833,0.473-1.722,0.709-2.665,0.709c-1.645,0-2.896-0.402-3.752-1.205
				c-0.855-0.803-1.284-1.934-1.284-3.393c0-1.5,0.605-2.656,1.816-3.468c1.213-0.812,2.874-1.22,4.985-1.22h2.963v-1.838
				c0-0.926-0.291-1.658-0.875-2.197c-0.584-0.541-1.396-0.811-2.438-0.811c-0.721,0-1.354,0.092-1.905,0.277
				c-0.55,0.185-0.995,0.438-1.335,0.758l-0.307,1.665h-2.22V8.584c0.72-0.574,1.592-1.033,2.614-1.381
				c1.021-0.344,2.131-0.518,3.327-0.518c1.792,0,3.241,0.458,4.352,1.373c1.109,0.914,1.663,2.223,1.663,3.926v7.605
				c0,0.205,0.003,0.404,0.008,0.6c0.006,0.194,0.018,0.389,0.037,0.584l1.168,0.16v1.84H65.346z M60.718,20.672
				c0.954,0,1.825-0.229,2.614-0.687c0.788-0.458,1.353-1.007,1.693-1.649v-2.599h-3.066c-1.177,0-2.109,0.272-2.795,0.817
				c-0.687,0.545-1.03,1.207-1.03,1.984c0,0.691,0.215,1.221,0.642,1.585C59.204,20.488,59.852,20.672,60.718,20.672z"/>
		</g>
		<g>
			<path fill="#3777BC" d="M30.346,29.824c3.698,0,6.746,1.18,9.143,3.543c2.397,2.361,3.595,5.391,3.595,9.09v5.008
				c0,3.713-1.197,6.742-3.595,9.092c-2.396,2.348-5.444,3.521-9.143,3.521h-13.61v-3.635l3.221-0.625V34.104l-3.221-0.623v-3.657
				h3.221H30.346L30.346,29.824z M26.024,34.5v20.924h4.011c2.175,0,3.878-0.734,5.111-2.203s1.849-3.387,1.849-5.756v-5.049
				c0-2.342-0.615-4.246-1.849-5.715c-1.233-1.467-2.937-2.201-5.111-2.201H26.024z"/>
			<path fill="#3777BC" d="M59.499,29.824c3.56,0,6.338,0.693,8.332,2.079c1.995,1.385,2.991,3.455,2.991,6.211
				c0,1.4-0.37,2.65-1.11,3.752c-0.742,1.102-1.819,1.93-3.232,2.482c1.815,0.389,3.177,1.219,4.084,2.494
				c0.907,1.273,1.361,2.748,1.361,4.426c0,2.895-0.957,5.088-2.868,6.576c-1.912,1.488-4.62,2.234-8.125,2.234H46.055v-3.635
				l3.221-0.625V34.104l-3.221-0.623v-3.657h3.221H59.499L59.499,29.824z M55.343,42.499h4.362c1.623,0,2.868-0.332,3.741-0.996
				c0.872-0.666,1.31-1.635,1.31-2.91c0-1.398-0.441-2.432-1.319-3.098c-0.881-0.664-2.191-0.996-3.938-0.996h-4.156V42.499z
				 M55.343,46.696v8.729h5.59c1.607,0,2.833-0.35,3.679-1.049c0.844-0.699,1.268-1.734,1.268-3.107
				c0-1.482-0.361-2.613-1.081-3.396s-1.856-1.174-3.408-1.174h-6.047V46.696z"/>
		</g>
	</g>
	<g>
		<path fill="#1D1D1B" d="M87.974,22.997c1.136-1.139,1.136-2.983,0-4.121c-1.139-1.139-2.984-1.139-4.121,0
			c-1.14,1.138-1.14,2.982,0,4.121C84.99,24.135,86.835,24.135,87.974,22.997z"/>
		<g>
			<g>
				<circle fill="#1D71B8" cx="77.653" cy="20.936" r="2.915"/>
				<path fill="#1D71B8" d="M83.851,27.1c-1.138,1.138-1.138,2.982,0,4.12c1.139,1.141,2.984,1.141,4.122,0
					c1.137-1.137,1.137-2.983,0-4.12C86.835,25.961,84.99,25.961,83.851,27.1z"/>
			</g>
		</g>
	</g>
</g>
</svg>
