<?xml version="1.0" encoding="UTF-8" standalone="no"?>
<!-- Created with Inkscape (http://www.inkscape.org/) -->

<svg
   xmlns:dc="http://purl.org/dc/elements/1.1/"
   xmlns:cc="http://creativecommons.org/ns#"
   xmlns:rdf="http://www.w3.org/1999/02/22-rdf-syntax-ns#"
   xmlns:svg="http://www.w3.org/2000/svg"
   xmlns="http://www.w3.org/2000/svg"
   xmlns:sodipodi="http://sodipodi.sourceforge.net/DTD/sodipodi-0.dtd"
   xmlns:inkscape="http://www.inkscape.org/namespaces/inkscape"
   width="48.490463mm"
   height="32.798279mm"
   viewBox="0 0 48.490463 32.798279"
   version="1.1"
   id="svg4341"
   inkscape:version="0.92+devel unknown"
   sodipodi:docname="logo-inv.svg">
  <defs
     id="defs4335" />
  <sodipodi:namedview
     id="base"
     pagecolor="#ffffff"
     bordercolor="#666666"
     borderopacity="1.0"
     inkscape:pageopacity="0.0"
     inkscape:pageshadow="2"
     inkscape:zoom="0.35"
     inkscape:cx="140.22073"
     inkscape:cy="-358.25617"
     inkscape:document-units="mm"
     inkscape:current-layer="layer1"
     inkscape:document-rotation="0"
     showgrid="false"
     inkscape:window-width="1280"
     inkscape:window-height="656"
     inkscape:window-x="0"
     inkscape:window-y="27"
     inkscape:window-maximized="1"
     fit-margin-top="0"
     fit-margin-left="0"
     fit-margin-right="0"
     fit-margin-bottom="0" />
  <metadata
     id="metadata4338">
    <rdf:RDF>
      <cc:Work
         rdf:about="">
        <dc:format>image/svg+xml</dc:format>
        <dc:type
           rdf:resource="http://purl.org/dc/dcmitype/StillImage" />
        <dc:title></dc:title>
      </cc:Work>
    </rdf:RDF>
  </metadata>
  <g
     inkscape:label="Layer 1"
     inkscape:groupmode="layer"
     id="layer1"
     transform="translate(-44.920766,-21.246444)">
    <g
       id="g44"
       transform="matrix(0.26458333,0,0,0.26458333,-18.912133,-3.4420911)">
      <g
         id="g30">
        <g
           id="g22">
          <path
             d="m 273.191,96.445 v 3.826 l -4.91,0.842 v 27.048 c 0,3.915 -1.24,7.022 -3.719,9.323 -2.48,2.299 -5.699,3.448 -9.653,3.448 -4.218,0 -7.571,-1.068 -10.061,-3.209 -2.49,-2.137 -3.684,-5.244 -3.584,-9.32 l 0.061,-0.181 h 5.692 c 0,2.711 0.688,4.734 2.063,6.07 1.376,1.334 3.318,2.002 5.829,2.002 2.188,0 3.976,-0.738 5.36,-2.214 1.386,-1.476 2.079,-3.448 2.079,-5.919 v -27.048 l -4.91,-0.842 v -3.826 h 10.843 z"
             id="path12"
             inkscape:connector-curvature="0" />
          <path
             d="m 300.961,135.481 c -1.023,1.746 -2.343,3.093 -3.959,4.034 -1.617,0.944 -3.479,1.416 -5.588,1.416 -3.535,0 -6.295,-1.133 -8.282,-3.403 -1.988,-2.27 -2.982,-5.802 -2.982,-10.602 v -14.548 l -3.735,-0.843 v -3.825 h 3.735 5.933 v 19.276 c 0,3.474 0.513,5.865 1.536,7.168 1.025,1.307 2.621,1.958 4.79,1.958 2.108,0 3.85,-0.425 5.225,-1.278 1.375,-0.855 2.414,-2.064 3.118,-3.63 v -18.825 l -4.368,-0.843 v -3.825 h 4.368 5.934 v 27.951 l 3.735,0.843 v 3.794 h -9.066 z"
             id="path14"
             inkscape:connector-curvature="0" />
          <path
             d="m 314.306,97.137 v -3.826 h 10.842 v 42.35 l 4.911,0.843 v 3.794 h -15.753 v -3.794 l 4.909,-0.843 V 97.98 Z"
             id="path16"
             inkscape:connector-curvature="0" />
          <path
             d="m 334.547,136.504 4.91,-0.843 v -23.282 l -4.91,-0.843 v -3.825 h 10.845 v 27.951 l 4.908,0.843 v 3.794 h -15.753 z m 10.845,-37.139 h -5.935 v -6.054 h 5.935 z"
             id="path18"
             inkscape:connector-curvature="0" />
          <path
             d="m 376.084,140.299 c -0.182,-0.883 -0.321,-1.676 -0.421,-2.379 -0.101,-0.702 -0.17,-1.405 -0.21,-2.108 -1.146,1.465 -2.576,2.686 -4.293,3.659 -1.717,0.975 -3.55,1.46 -5.497,1.46 -3.394,0 -5.975,-0.827 -7.741,-2.484 -1.768,-1.655 -2.65,-3.989 -2.65,-7.002 0,-3.093 1.25,-5.477 3.75,-7.156 2.501,-1.676 5.928,-2.513 10.286,-2.513 h 6.115 v -3.795 c 0,-1.909 -0.602,-3.419 -1.807,-4.533 -1.205,-1.114 -2.882,-1.672 -5.03,-1.672 -1.487,0 -2.795,0.191 -3.932,0.571 -1.135,0.381 -2.053,0.905 -2.754,1.567 l -0.633,3.434 h -4.58 v -6.327 c 1.486,-1.182 3.284,-2.132 5.393,-2.846 2.109,-0.713 4.397,-1.069 6.865,-1.069 3.697,0 6.689,0.944 8.979,2.831 2.288,1.888 3.432,4.588 3.432,8.103 v 15.693 c 0,0.42 0.005,0.833 0.016,1.235 0.01,0.402 0.035,0.804 0.075,1.205 l 2.412,0.331 v 3.794 h -7.775 z m -9.548,-4.337 c 1.969,0 3.765,-0.472 5.391,-1.415 1.628,-0.944 2.793,-2.079 3.495,-3.405 v -5.361 h -6.326 c -2.429,0 -4.352,0.563 -5.767,1.688 -1.416,1.124 -2.124,2.488 -2.124,4.095 0,1.426 0.442,2.515 1.325,3.269 0.884,0.753 2.219,1.129 4.006,1.129 z"
             id="path20"
             inkscape:connector-curvature="0" />
        </g>
        <g
           id="g28">
          <path
             fill="#FFFFFF"
             d="m 303.868,154.848 c 7.631,0 13.919,2.436 18.864,7.309 4.944,4.875 7.417,11.127 7.417,18.757 v 10.332 c 0,7.663 -2.473,13.913 -7.417,18.759 -4.945,4.845 -11.233,7.268 -18.864,7.268 h -28.083 v -7.502 l 6.646,-1.286 V 163.68 l -6.646,-1.286 v -7.545 h 6.646 21.437 z m -8.917,9.645 v 43.173 h 8.274 c 4.487,0 8.002,-1.515 10.547,-4.543 2.543,-3.03 3.816,-6.989 3.816,-11.878 v -10.417 c 0,-4.829 -1.272,-8.76 -3.816,-11.789 -2.544,-3.031 -6.06,-4.546 -10.547,-4.546 z"
             id="path24"
             inkscape:connector-curvature="0" />
          <path
             fill="#FFFFFF"
             d="m 364.021,154.848 c 7.344,0 13.075,1.43 17.191,4.286 4.116,2.857 6.173,7.133 6.173,12.817 0,2.89 -0.765,5.469 -2.292,7.741 -1.528,2.271 -3.752,3.98 -6.668,5.122 3.745,0.802 6.553,2.517 8.425,5.146 1.873,2.63 2.809,5.673 2.809,9.133 0,5.972 -1.973,10.497 -5.917,13.568 -3.945,3.07 -9.532,4.609 -16.764,4.609 h -30.697 v -7.502 l 6.646,-1.286 v -44.805 l -6.646,-1.286 v -7.545 h 6.646 21.094 z m -8.575,26.151 h 9.002 c 3.346,0 5.917,-0.685 7.717,-2.056 1.801,-1.373 2.703,-3.373 2.703,-6.004 0,-2.886 -0.91,-5.016 -2.724,-6.388 -1.815,-1.372 -4.522,-2.059 -8.124,-2.059 h -8.575 v 16.507 z m 0,8.661 v 18.006 h 11.532 c 3.317,0 5.846,-0.722 7.59,-2.163 1.743,-1.441 2.614,-3.579 2.614,-6.409 0,-3.062 -0.743,-5.396 -2.229,-7.011 -1.485,-1.616 -3.83,-2.423 -7.031,-2.423 z"
             id="path26"
             inkscape:connector-curvature="0" />
        </g>
      </g>
      <g
         id="g42">
        <path
           fill="#1D1D1B"
           d="m 422.772,140.761 c 2.343,-2.349 2.343,-6.155 0,-8.503 -2.349,-2.35 -6.158,-2.35 -8.506,0 -2.348,2.348 -2.348,6.154 0,8.503 2.348,2.348 6.157,2.348 8.506,0 z"
           id="path32"
           inkscape:connector-curvature="0" />
        <g
           id="g40">
          <g
             id="g38">
            <path
               style="fill:#ffffff"
               d="m 407.48901,136.509 a 6.013,6.013 0 0 1 -6.013,6.013 6.013,6.013 0 0 1 -6.013,-6.013 6.013,6.013 0 0 1 6.013,-6.013 6.013,6.013 0 0 1 6.013,6.013"
               id="circle34"
               inkscape:connector-curvature="0" />
            <path
               fill="#FFFFFF"
               d="m 414.266,149.224 c -2.348,2.348 -2.348,6.155 0,8.503 2.348,2.35 6.157,2.35 8.506,0 2.343,-2.348 2.343,-6.155 0,-8.503 -2.349,-2.347 -6.158,-2.347 -8.506,0 z"
               id="path36"
               inkscape:connector-curvature="0" />
          </g>
        </g>
      </g>
    </g>
  </g>
</svg>
