<?xml version="1.0" encoding="utf-8"?>
<!-- Generator: Adobe Illustrator 16.0.0, SVG Export Plug-In . SVG Version: 6.00 Build 0)  -->
<!DOCTYPE svg PUBLIC "-//W3C//DTD SVG 1.1//EN" "http://www.w3.org/Graphics/SVG/1.1/DTD/svg11.dtd">
<svg version="1.1" id="Layer_1" xmlns="http://www.w3.org/2000/svg" xmlns:xlink="http://www.w3.org/1999/xlink" x="0px" y="0px"
	 width="138px" height="81px" viewBox="0 0 138 81" enable-background="new 0 0 138 81" xml:space="preserve">
<g>
	<g>
		<path fill="#111315" d="M12.738,66.846c0.653,0,1.176-0.19,1.57-0.572c0.393-0.381,0.59-0.889,0.59-1.525h3.315l0.038,0.076
			c0.033,1.373-0.481,2.521-1.544,3.447c-1.063,0.924-2.386,1.387-3.968,1.387c-2.026,0-3.587-0.641-4.684-1.922
			c-1.097-1.28-1.645-2.926-1.645-4.935v-0.376c0-2.002,0.563-3.646,1.689-4.936s2.731-1.934,4.816-1.934
			c1.097,0,2.08,0.162,2.951,0.489c0.87,0.327,1.595,0.787,2.172,1.382l0.05,3.629h-2.977l-0.603-2.123
			c-0.184-0.158-0.41-0.291-0.678-0.395c-0.268-0.105-0.574-0.158-0.917-0.158c-1.038,0-1.771,0.377-2.198,1.131
			c-0.427,0.754-0.64,1.725-0.64,2.914v0.376c0,1.214,0.196,2.191,0.59,2.933C11.06,66.475,11.75,66.846,12.738,66.846z"/>
	</g>
	<g>
		<path fill="#111315" d="M19.394,62.476c0-2.026,0.567-3.687,1.702-4.979s2.702-1.939,4.703-1.939c2.009,0,3.581,0.645,4.715,1.934
			s1.702,2.951,1.702,4.985v0.264c0,2.042-0.567,3.706-1.702,4.991s-2.698,1.928-4.69,1.928c-2.018,0-3.594-0.643-4.728-1.928
			s-1.702-2.949-1.702-4.991V62.476z M23.061,62.739c0,1.239,0.217,2.233,0.653,2.981c0.436,0.75,1.139,1.125,2.11,1.125
			c0.946,0,1.639-0.377,2.078-1.131c0.439-0.753,0.659-1.745,0.659-2.976v-0.264c0-1.206-0.222-2.189-0.666-2.951
			c-0.443-0.762-1.143-1.144-2.097-1.144c-0.954,0-1.649,0.382-2.084,1.144s-0.653,1.745-0.653,2.951V62.739z"/>
		<path fill="#111315" d="M32.612,58.018v-2.211h5.362l0.15,1.797c0.436-0.653,0.981-1.158,1.639-1.514
			c0.657-0.355,1.417-0.533,2.279-0.533c0.871,0,1.616,0.192,2.235,0.577c0.62,0.386,1.088,0.967,1.407,1.745
			c0.418-0.729,0.962-1.297,1.632-1.707c0.669-0.41,1.457-0.615,2.361-0.615c1.339,0,2.396,0.462,3.171,1.387
			c0.774,0.926,1.161,2.334,1.161,4.227v5.65l1.771,0.377v2.197h-7.02v-2.197l1.583-0.377v-5.664c0-1.029-0.167-1.745-0.502-2.146
			c-0.335-0.402-0.833-0.604-1.494-0.604c-0.52,0-0.969,0.115-1.35,0.346s-0.684,0.551-0.911,0.961c0,0.159,0.004,0.295,0.013,0.408
			s0.013,0.229,0.013,0.346v6.354l1.482,0.377v2.197h-6.618v-2.197l1.482-0.377v-5.664c0-1.004-0.167-1.714-0.502-2.128
			c-0.335-0.415-0.837-0.622-1.507-0.622c-0.494,0-0.927,0.095-1.3,0.283s-0.68,0.454-0.923,0.797v7.334l1.583,0.377v2.197H32.8
			v-2.197l1.771-0.377v-8.426L32.612,58.018z"/>
	</g>
	<g>
		<path fill="#111315" d="M55.913,58.018v-2.211h5.325l0.176,1.583c0.402-0.586,0.883-1.038,1.444-1.356
			c0.561-0.318,1.214-0.477,1.959-0.477c1.683,0,2.989,0.656,3.918,1.971c0.93,1.314,1.395,3.044,1.395,5.187v0.264
			c0,2.009-0.465,3.626-1.395,4.847c-0.929,1.223-2.227,1.834-3.893,1.834c-0.712,0-1.344-0.131-1.896-0.396
			c-0.552-0.263-1.025-0.651-1.419-1.161v3.93l1.771,0.377v2.211h-7.196v-2.211l1.771-0.377V58.395L55.913,58.018z M66.462,62.714
			c0-1.28-0.214-2.319-0.641-3.114s-1.08-1.193-1.959-1.193c-0.553,0-1.023,0.113-1.413,0.34c-0.389,0.226-0.697,0.549-0.923,0.967
			v5.952c0.226,0.386,0.534,0.679,0.923,0.879c0.389,0.201,0.868,0.302,1.438,0.302c0.887,0,1.538-0.348,1.952-1.043
			c0.415-0.694,0.622-1.637,0.622-2.825V62.714z"/>
	</g>
	<g>
		<path fill="#111315" d="M80.753,67.674c-0.436,0.637-0.974,1.127-1.614,1.47c-0.64,0.343-1.371,0.515-2.191,0.515
			c-1.432,0-2.553-0.458-3.365-1.375c-0.813-0.916-1.218-2.342-1.218-4.275v-5.613l-1.494-0.377v-2.211h1.494h3.667v8.227
			c0,0.987,0.165,1.697,0.496,2.128c0.33,0.431,0.822,0.646,1.475,0.646c0.578,0,1.078-0.094,1.502-0.282
			c0.422-0.188,0.768-0.459,1.035-0.811v-7.32l-1.607-0.377v-2.211h1.607h3.667V66.82l1.646,0.377v2.197h-4.86L80.753,67.674z"/>
	</g>
	<g>
		<path fill="#111315" d="M91.679,52.479v3.327h2.386v2.574h-2.386v6.92c0,0.527,0.108,0.904,0.326,1.131
			c0.218,0.226,0.511,0.338,0.88,0.338c0.25,0,0.471-0.01,0.658-0.031c0.189-0.021,0.4-0.057,0.635-0.106l0.314,2.649
			c-0.41,0.126-0.816,0.221-1.219,0.283c-0.401,0.063-0.838,0.094-1.306,0.094c-1.265,0-2.237-0.348-2.92-1.042
			s-1.022-1.796-1.022-3.303v-6.933h-1.998v-2.574h1.998v-3.327H91.679z"/>
	</g>
	<g>
		<path fill="#111315" d="M95.747,67.197l1.771-0.377v-8.426l-1.959-0.377v-2.211h5.626V66.82l1.758,0.377v2.197h-7.196V67.197z"/>
	</g>
	<g>
		<path fill="#111315" d="M104.205,67.197l1.758-0.377v-8.426l-1.946-0.377v-2.211h5.362l0.163,1.947
			c0.452-0.695,1.009-1.234,1.67-1.62c0.661-0.385,1.402-0.577,2.224-0.577c1.372,0,2.443,0.432,3.214,1.293
			c0.771,0.862,1.155,2.215,1.155,4.057v5.914l1.758,0.377v2.197h-7.007v-2.197l1.569-0.377v-5.902c0-0.912-0.184-1.559-0.553-1.939
			c-0.367-0.381-0.925-0.572-1.67-0.572c-0.485,0-0.921,0.1-1.306,0.296c-0.386,0.196-0.708,0.476-0.968,0.835v7.283l1.482,0.377
			v2.197h-6.906V67.197z"/>
		<path fill="#111315" d="M120.082,62.714c0-2.143,0.467-3.872,1.4-5.187s2.242-1.971,3.924-1.971c0.762,0,1.432,0.169,2.01,0.508
			c0.578,0.34,1.071,0.822,1.482,1.451l0.264-1.709h3.189v13.186c0,1.792-0.563,3.222-1.689,4.289s-2.672,1.602-4.641,1.602
			c-0.686,0-1.414-0.095-2.185-0.283s-1.481-0.445-2.135-0.771l0.679-2.574c0.586,0.25,1.172,0.449,1.758,0.596
			s1.205,0.22,1.858,0.22c0.896,0,1.565-0.272,2.009-0.815c0.443-0.545,0.666-1.303,0.666-2.273v-0.892
			c-0.402,0.511-0.875,0.899-1.419,1.167c-0.544,0.269-1.168,0.402-1.871,0.402c-1.666,0-2.966-0.613-3.899-1.84
			s-1.4-2.84-1.4-4.841V62.714z M123.749,62.978c0,1.188,0.201,2.124,0.603,2.808c0.402,0.682,1.055,1.022,1.959,1.022
			c0.561,0,1.037-0.103,1.426-0.308c0.39-0.205,0.701-0.504,0.936-0.898V59.7c-0.234-0.41-0.546-0.729-0.936-0.954
			c-0.389-0.227-0.856-0.34-1.4-0.34c-0.896,0-1.551,0.398-1.965,1.193s-0.622,1.834-0.622,3.114V62.978z"/>
	</g>
	<g>
		<path fill="#111315" d="M58.247,19.052v3.672l-3.254,0.626v16.96c0,2.935-0.957,5.261-2.869,6.979
			c-1.912,1.717-4.329,2.576-7.249,2.576c-3.171,0-5.682-0.771-7.531-2.316c-1.85-1.543-2.74-3.817-2.67-6.822l0.042-0.125h5.925
			c0,1.599,0.383,2.764,1.147,3.494c0.765,0.73,1.794,1.095,3.088,1.095c1.126,0,2.082-0.435,2.868-1.304
			c0.786-0.87,1.179-2.062,1.179-3.578V23.35l-3.254-0.626v-3.672h9.325H58.247z"/>
	</g>
	<g>
		<path fill="#111315" d="M74.208,46.568c-0.724,1.058-1.616,1.871-2.681,2.441s-2.277,0.855-3.64,0.855
			c-2.378,0-4.242-0.762-5.591-2.285c-1.349-1.522-2.023-3.89-2.023-7.103v-9.325l-2.482-0.626v-3.671h2.482h6.092v13.665
			c0,1.641,0.274,2.82,0.824,3.536c0.549,0.716,1.367,1.074,2.452,1.074c0.959,0,1.79-0.156,2.493-0.47
			c0.701-0.313,1.275-0.761,1.721-1.346V31.152l-2.67-0.626v-3.671h2.67h6.092V45.15l2.732,0.626v3.65h-8.073L74.208,46.568z"/>
	</g>
	<g>
		<path fill="#111315" d="M84.003,20.554v-3.672h9.347V45.15l2.941,0.626v3.65H84.316v-3.65l2.941-0.626V21.18L84.003,20.554z"/>
	</g>
	<g>
		<path fill="#111315" d="M98.085,45.776l2.941-0.626V31.152l-3.255-0.626v-3.671h9.347V45.15l2.921,0.626v3.65H98.085V45.776z
			 M107.118,21.451h-6.092v-4.568h6.092V21.451z"/>
		<path fill="#111315" d="M125.604,49.427c-0.167-0.376-0.313-0.762-0.438-1.157c-0.125-0.396-0.223-0.797-0.293-1.2
			c-0.723,0.835-1.603,1.509-2.639,2.024c-1.036,0.514-2.222,0.771-3.557,0.771c-2.211,0-3.968-0.602-5.268-1.805
			c-1.301-1.203-1.951-2.84-1.951-4.914c0-2.113,0.849-3.748,2.545-4.902c1.697-1.154,4.187-1.731,7.469-1.731h3.108v-2.212
			c0-1.085-0.313-1.926-0.938-2.524s-1.551-0.897-2.774-0.897c-0.696,0-1.314,0.08-1.856,0.24c-0.543,0.16-0.98,0.351-1.314,0.574
			l-0.396,2.42h-4.59l0.021-5.007c1.113-0.751,2.39-1.384,3.829-1.899c1.439-0.514,3.007-0.771,4.704-0.771
			c2.796,0,5.065,0.685,6.812,2.055c1.744,1.37,2.617,3.32,2.617,5.852v9.325c0,0.348,0.004,0.675,0.012,0.98
			c0.006,0.306,0.031,0.598,0.072,0.876l1.857,0.25v3.65H125.604z M120.325,45.359c0.918,0,1.753-0.198,2.504-0.595
			s1.335-0.894,1.752-1.491v-3.442h-3.108c-1.293,0-2.273,0.302-2.941,0.907c-0.667,0.605-1.001,1.332-1.001,2.18
			c0,0.765,0.246,1.363,0.741,1.794C118.764,45.144,119.449,45.359,120.325,45.359z"/>
	</g>
	<g>
		<g>
			<defs>
				<rect id="SVGID_1_" x="19.693" y="23.096" width="12.873" height="12.873"/>
			</defs>
			<clipPath id="SVGID_2_">
				<use xlink:href="#SVGID_1_"  overflow="visible"/>
			</clipPath>
			<path opacity="0.8" clip-path="url(#SVGID_2_)" fill="#419945" d="M22.458,25.861c-2.028,2.028-2.028,5.315,0,7.343
				s5.315,2.028,7.343,0c2.027-2.028,2.027-5.315,0-7.343C27.774,23.833,24.486,23.833,22.458,25.861"/>
			<path clip-path="url(#SVGID_2_)" fill="none" stroke="#358C42" stroke-width="1.6592" d="M22.458,25.861
				c-2.028,2.028-2.028,5.315,0,7.343s5.315,2.028,7.343,0c2.027-2.028,2.027-5.315,0-7.343
				C27.774,23.833,24.486,23.833,22.458,25.861"/>
		</g>
		<g>
			<defs>
				<rect id="SVGID_3_" x="5.991" y="23.096" width="12.874" height="12.873"/>
			</defs>
			<clipPath id="SVGID_4_">
				<use xlink:href="#SVGID_3_"  overflow="visible"/>
			</clipPath>
			<path opacity="0.8" clip-path="url(#SVGID_4_)" fill="#CB3D33" d="M8.756,25.861c-2.028,2.028-2.028,5.315,0,7.343
				s5.315,2.028,7.343,0c2.027-2.028,2.027-5.315,0-7.343C14.071,23.833,10.784,23.833,8.756,25.861"/>
			<path clip-path="url(#SVGID_4_)" fill="none" stroke="#C03B30" stroke-width="1.6592" d="M8.756,25.861
				c-2.028,2.028-2.028,5.315,0,7.343s5.315,2.028,7.343,0c2.027-2.028,2.027-5.315,0-7.343
				C14.071,23.833,10.784,23.833,8.756,25.861"/>
		</g>
		<g>
			<defs>
				<rect id="SVGID_5_" x="19.693" y="36.733" width="12.873" height="12.874"/>
			</defs>
			<clipPath id="SVGID_6_">
				<use xlink:href="#SVGID_5_"  overflow="visible"/>
			</clipPath>
			<path opacity="0.8" clip-path="url(#SVGID_6_)" fill="#935AA4" d="M22.458,39.499c-2.028,2.027-2.028,5.315,0,7.343
				c2.028,2.027,5.315,2.027,7.343,0c2.027-2.028,2.027-5.315,0-7.343C27.774,37.471,24.486,37.471,22.458,39.499"/>
			<path clip-path="url(#SVGID_6_)" fill="none" stroke="#8750A0" stroke-width="1.6592" d="M22.458,39.499
				c-2.028,2.027-2.028,5.315,0,7.343c2.028,2.027,5.315,2.027,7.343,0c2.027-2.028,2.027-5.315,0-7.343
				C27.774,37.471,24.486,37.471,22.458,39.499"/>
		</g>
		<g>
			<defs>
				<rect id="SVGID_7_" x="5.944" y="36.733" width="12.966" height="12.874"/>
			</defs>
			<clipPath id="SVGID_8_">
				<use xlink:href="#SVGID_7_"  overflow="visible"/>
			</clipPath>
			<path opacity="0.8" clip-path="url(#SVGID_8_)" fill="#4C65AF" d="M8.723,39.499c-2.046,2.027-2.046,5.315,0,7.343
				c2.046,2.027,5.363,2.027,7.409,0c2.046-2.028,2.046-5.315,0-7.343C14.086,37.471,10.769,37.471,8.723,39.499"/>
			<path clip-path="url(#SVGID_8_)" fill="none" stroke="#435CAA" stroke-width="1.6592" d="M8.723,39.499
				c-2.046,2.027-2.046,5.315,0,7.343c2.046,2.027,5.363,2.027,7.409,0c2.046-2.028,2.046-5.315,0-7.343
				C14.086,37.471,10.769,37.471,8.723,39.499"/>
		</g>
	</g>
</g>
</svg>
